<svg xmlns="http://www.w3.org/2000/svg" width="16.989" height="16.026" viewBox="0 0 16.989 16.026"><defs><style>.a{fill:#fff;}</style></defs><path class="a" d="M21.142,12.8H10.81l4.007-3.833a1.6,1.6,0,0,0,0-2.182,1.428,1.428,0,0,0-2.086,0L6.06,13.252a1.471,1.471,0,0,0-.435,1.081v.019a1.471,1.471,0,0,0,.435,1.081L12.727,21.9a1.428,1.428,0,0,0,2.086,0,1.6,1.6,0,0,0,0-2.182l-4.007-3.833H21.137a1.511,1.511,0,0,0,1.477-1.545A1.5,1.5,0,0,0,21.142,12.8Z" transform="translate(22.614 22.356) rotate(180)"/></svg>