<svg xmlns="http://www.w3.org/2000/svg" width="29.994" height="19.087" viewBox="0 0 29.994 19.087"><defs><style>.a{fill:#ffce21;}</style></defs><path class="a" d="M21.95,15.68a4.09,4.09,0,1,0-4.09-4.09A4.073,4.073,0,0,0,21.95,15.68Zm-10.907,0a4.09,4.09,0,1,0-4.09-4.09A4.073,4.073,0,0,0,11.043,15.68Zm0,2.727C7.867,18.407,1.5,20,1.5,23.178v3.408H20.587V23.178C20.587,20,14.22,18.407,11.043,18.407Zm10.907,0c-.4,0-.845.027-1.322.068a5.753,5.753,0,0,1,2.686,4.7v3.408h8.18V23.178C31.494,20,25.127,18.407,21.95,18.407Z" transform="translate(-1.5 -7.5)"/></svg>